# xmcd
#
# Track frame offsets:
#	150
#	15774
#	30648
#	43692
#	60180
#	72774
#	85844
#	97326
#	109054
#	121215
#	133488
#	154496
#	170285
#	180062
#	197064
#
# Disc length: 2787 seconds
#
# Revision: 0
# Processed by: cddbd v1.5.2PL0 Copyright (c) Steve Scherf et al.
# Submitted via: dBpowerAMP V4.0
#
DISCID=bd0ae10f
DTITLE=Snooks Eaglin - Out of Nowhere
DYEAR=1988
DGENRE=
TTITLE0=Oh Lawdy My Baby
TTITLE1=Lipstick Traces
TTITLE2=Young Girl
TTITLE3=Out of Nowhere
TTITLE4=You're so Fine
TTITLE5=Mailman Blues
TTITLE6=Wella Wella Baby La
TTITLE7=Kiss Of Fire
TTITLE8=It's your Thing
TTITLE9=Playgirl
TTITLE10=West Side Baby
TTITLE11=Cheeta
TTITLE12=Bombastic
TTITLE13=Young Boy Blues
TTITLE14=Kiss of Fire (alternative Take)
EXTD=
EXTT0=
EXTT1=
EXTT2=
EXTT3=
EXTT4=
EXTT5=
EXTT6=
EXTT7=
EXTT8=
EXTT9=
EXTT10=
EXTT11=
EXTT12=
EXTT13=
EXTT14=
PLAYORDER=
